<svg width="56" height="57" viewBox="0 0 56 57" fill="none" xmlns="http://www.w3.org/2000/svg">
<rect x="1.78333" y="1.74048" width="52.3406" height="53.4275" rx="14" fill="url(#paint0_linear_0_1)" stroke="white" stroke-width="2"/>
<path fill-rule="evenodd" clip-rule="evenodd" d="M23.9782 15.7043C24.3282 14.9668 25.0832 14.4543 25.9557 14.4543H30.9557C31.8282 14.4543 32.5819 14.9668 32.9332 15.7043C33.7869 15.7118 34.4532 15.7506 35.0482 15.9831C35.7585 16.2609 36.3762 16.7331 36.8307 17.3456C37.2894 17.9631 37.5057 18.7543 37.8007 19.8431L38.7282 23.2456L39.0782 24.2968L39.1082 24.3343C40.2344 25.7768 39.6982 27.9218 38.6257 32.2106C37.9432 34.9393 37.6032 36.3031 36.5857 37.0981C35.5682 37.8918 34.1619 37.8918 31.3494 37.8918H25.5619C22.7494 37.8918 21.3432 37.8918 20.3257 37.0981C19.3082 36.3031 18.9669 34.9393 18.2857 32.2106C17.2132 27.9218 16.6769 25.7768 17.8032 24.3343L17.8332 24.2968L18.1832 23.2456L19.1107 19.8431C19.4069 18.7543 19.6232 17.9618 20.0807 17.3443C20.5353 16.7323 21.153 16.2606 21.8632 15.9831C22.4582 15.7506 23.1232 15.7106 23.9782 15.7043ZM23.9807 17.5818C23.1532 17.5906 22.8207 17.6218 22.5457 17.7293C22.1631 17.8789 21.8304 18.1332 21.5857 18.4631C21.3657 18.7593 21.2357 19.1731 20.8732 20.5068L20.1607 23.1181C21.4357 22.8918 23.1782 22.8918 25.5607 22.8918H31.3494C33.7332 22.8918 35.4744 22.8918 36.7494 23.1168L36.0382 20.5056C35.6757 19.1718 35.5457 18.7581 35.3257 18.4618C35.0809 18.132 34.7482 17.8777 34.3657 17.7281C34.0907 17.6206 33.7582 17.5893 32.9307 17.5806C32.7532 17.9542 32.4734 18.2697 32.1239 18.4908C31.7743 18.7118 31.3692 18.8292 30.9557 18.8293H25.9557C25.5422 18.8293 25.1373 18.7121 24.7877 18.4913C24.4382 18.2705 24.1583 17.9552 23.9807 17.5818Z" fill="#FFC700"/>
<defs>
<linearGradient id="paint0_linear_0_1" x1="49.6899" y1="56.168" x2="-4.65075" y2="-7.95403" gradientUnits="userSpaceOnUse">
<stop stop-color="#8945EC"/>
<stop offset="1" stop-color="#8945EC" stop-opacity="0.5"/>
</linearGradient>
</defs>
</svg>
