<svg width="56" height="56" viewBox="0 0 56 56" fill="none" xmlns="http://www.w3.org/2000/svg">
<rect x="1.78333" y="1.11523" width="52.3406" height="53.4275" rx="14" fill="url(#paint0_linear_0_1)" stroke="white" stroke-width="2"/>
<path d="M34.8527 22.4539H33.6027V19.9539C33.6027 16.5039 30.8027 13.7039 27.3527 13.7039C23.9027 13.7039 21.1027 16.5039 21.1027 19.9539V22.4539H19.8527C18.4777 22.4539 17.3527 23.5789 17.3527 24.9539V37.4539C17.3527 38.8289 18.4777 39.9539 19.8527 39.9539H34.8527C36.2277 39.9539 37.3527 38.8289 37.3527 37.4539V24.9539C37.3527 23.5789 36.2277 22.4539 34.8527 22.4539ZM27.3527 33.7039C25.9777 33.7039 24.8527 32.5789 24.8527 31.2039C24.8527 29.8289 25.9777 28.7039 27.3527 28.7039C28.7277 28.7039 29.8527 29.8289 29.8527 31.2039C29.8527 32.5789 28.7277 33.7039 27.3527 33.7039ZM31.2277 22.4539H23.4777V19.9539C23.4777 17.8164 25.2152 16.0789 27.3527 16.0789C29.4902 16.0789 31.2277 17.8164 31.2277 19.9539V22.4539Z" fill="#FFC700"/>
<defs>
<linearGradient id="paint0_linear_0_1" x1="49.6899" y1="55.5427" x2="-4.65075" y2="-8.57928" gradientUnits="userSpaceOnUse">
<stop stop-color="#8945EC"/>
<stop offset="1" stop-color="#8945EC" stop-opacity="0.5"/>
</linearGradient>
</defs>
</svg>
