<svg width="56" height="56" viewBox="0 0 56 56" fill="none" xmlns="http://www.w3.org/2000/svg">
<rect x="1.78333" y="1.36572" width="52.3406" height="53.4275" rx="14" fill="url(#paint0_linear_154_295)" stroke="white" stroke-width="2"/>
<path d="M38.2474 20.1868C38.7874 18.6931 37.3399 17.2456 35.8461 17.7868L17.5899 24.3893C16.0911 24.9318 15.9099 26.9768 17.2886 27.7756L23.1161 31.1493L28.3199 25.9456C28.5556 25.7179 28.8714 25.5919 29.1991 25.5947C29.5269 25.5976 29.8404 25.7291 30.0721 25.9608C30.3039 26.1926 30.4353 26.5061 30.4382 26.8338C30.441 27.1616 30.3151 27.4773 30.0874 27.7131L24.8836 32.9168L28.2586 38.7443C29.0561 40.1231 31.1011 39.9406 31.6436 38.4431L38.2474 20.1868Z" fill="white"/>
<defs>
<linearGradient id="paint0_linear_154_295" x1="49.6899" y1="55.7932" x2="-4.65075" y2="-8.32879" gradientUnits="userSpaceOnUse">
<stop stop-color="#FFBE41"/>
<stop offset="1" stop-color="#FFD66B"/>
</linearGradient>
</defs>
</svg>
