<svg width="62" height="63" viewBox="0 0 62 63" fill="none" xmlns="http://www.w3.org/2000/svg">
<rect x="1.89551" y="1.45795" width="58.8364" height="60.0532" rx="14" fill="url(#paint0_linear_0_1)" stroke="white" stroke-width="2"/>
<path d="M31.697 17.2009C31.697 17.2009 30.9376 17.5884 30.179 18.1591C29.7997 18.4445 29.4158 18.7755 29.1123 19.1568C28.8088 19.538 28.5614 19.9907 28.599 20.52C28.6409 21.1083 29.0397 21.5464 29.465 21.8091C29.8904 22.0717 30.3734 22.2306 30.8282 22.3874C31.2832 22.5441 31.7101 22.6987 31.9809 22.8659C32.2518 23.0332 32.3355 23.1415 32.349 23.3325C32.3506 23.3542 32.3245 23.47 32.1959 23.6315C32.0673 23.7931 31.8604 23.979 31.644 24.1419C31.2111 24.4675 30.7595 24.7009 30.7595 24.7009L31.2406 25.6393C31.2406 25.6393 31.7577 25.376 32.278 24.9846C32.5382 24.7889 32.804 24.5611 33.021 24.2885C33.2381 24.0157 33.4308 23.6768 33.401 23.2576C33.3592 22.6694 32.9604 22.2313 32.535 21.9686C32.1097 21.7059 31.6267 21.5471 31.1718 21.3903C30.7169 21.2336 30.29 21.079 30.0192 20.9117C29.7483 20.7444 29.6646 20.6362 29.651 20.4451C29.6416 20.3132 29.7223 20.0837 29.9373 19.8137C30.1524 19.5436 30.4774 19.2542 30.8131 19.0017C31.4842 18.4968 32.1781 18.1393 32.1781 18.1393L31.697 17.2009ZM24.197 20.0134C24.197 20.0134 23.4376 20.4009 22.679 20.9716C22.2997 21.257 21.9158 21.588 21.6123 21.9693C21.3088 22.3505 21.0614 22.8032 21.099 23.3325C21.1409 23.9208 21.5397 24.3589 21.965 24.6216C22.3904 24.8842 22.8734 25.0431 23.3282 25.1999C23.7832 25.3566 24.2101 25.5112 24.4809 25.6784C24.7518 25.8457 24.8355 25.954 24.849 26.145C24.8506 26.1667 24.8245 26.2825 24.6959 26.444C24.5673 26.6056 24.3604 26.7915 24.144 26.9544C23.7111 27.28 23.2595 27.5134 23.2595 27.5134L23.7406 28.4518C23.7406 28.4518 24.2577 28.1885 24.778 27.7971C25.0382 27.6014 25.304 27.3736 25.521 27.1009C25.7381 26.8282 25.9308 26.4892 25.901 26.0701C25.8592 25.4819 25.4604 25.0438 25.035 24.7811C24.6097 24.5184 24.1267 24.3596 23.6718 24.2028C23.2169 24.0461 22.79 23.8915 22.5192 23.7242C22.2483 23.5569 22.1646 23.4487 22.151 23.2576C22.1416 23.1257 22.2223 22.8962 22.4373 22.6262C22.6524 22.3561 22.9774 22.0667 23.3131 21.8142C23.9842 21.3093 24.6781 20.9518 24.6781 20.9518L24.197 20.0134ZM39.197 20.0134C39.197 20.0134 38.4376 20.4009 37.679 20.9716C37.2997 21.257 36.9158 21.588 36.6123 21.9693C36.3088 22.3505 36.0614 22.8032 36.099 23.3325C36.1409 23.9208 36.5397 24.3589 36.965 24.6216C37.3904 24.8842 37.8734 25.0431 38.3282 25.1999C38.7832 25.3566 39.2101 25.5112 39.4809 25.6784C39.7518 25.8457 39.8355 25.954 39.849 26.145C39.8506 26.1667 39.8245 26.2825 39.6959 26.444C39.5673 26.6056 39.3604 26.7915 39.144 26.9544C38.7111 27.28 38.2595 27.5134 38.2595 27.5134L38.7406 28.4518C38.7406 28.4518 39.2577 28.1885 39.778 27.7971C40.0382 27.6014 40.304 27.3736 40.521 27.1009C40.7381 26.8282 40.9308 26.4892 40.901 26.0701C40.8592 25.4819 40.4604 25.0438 40.035 24.7811C39.6097 24.5184 39.1267 24.3596 38.6718 24.2028C38.2169 24.0461 37.79 23.8915 37.5192 23.7242C37.2483 23.5569 37.1646 23.4487 37.151 23.2576C37.1416 23.1257 37.2223 22.8962 37.4373 22.6262C37.6524 22.3561 37.9774 22.0667 38.3131 21.8142C38.9842 21.3093 39.6781 20.9518 39.6781 20.9518L39.197 20.0134ZM31 26.9864C30.2383 26.9864 29.7232 27.3329 29.3294 27.9235C29.1664 28.168 29.0349 28.4567 28.9359 28.7711C29.5992 28.6769 30.2877 28.6272 31 28.6272C31.7124 28.6272 32.4008 28.6769 33.0641 28.7711C32.9652 28.4567 32.8337 28.168 32.6707 27.9235C32.2769 27.3329 31.7617 26.9864 31 26.9864ZM31 29.6817C24.0024 29.6817 19.6474 34.723 19.3668 39.8772H42.6332C42.3526 34.723 37.9976 29.6817 31 29.6817ZM17.3104 40.1488L16.5647 40.8945C17.6264 41.9563 18.8125 41.9864 19.75 41.9864H42.25C43.1875 41.9864 44.3736 41.9563 45.4354 40.8945L44.6897 40.1488C43.8764 40.962 43.1875 40.9319 42.25 40.9319H19.75C18.8125 40.9319 18.1236 40.962 17.3104 40.1488ZM22.6102 43.0411L23.7822 44.7991H38.2178L39.3898 43.0411H22.6102Z" fill="#FFC700"/>
<defs>
<linearGradient id="paint0_linear_0_1" x1="55.6483" y1="62.5111" x2="-5.18814" y2="-9.27589" gradientUnits="userSpaceOnUse">
<stop stop-color="#8945EC"/>
<stop offset="1" stop-color="#8945EC" stop-opacity="0.5"/>
</linearGradient>
</defs>
</svg>
