<svg width="62" height="63" viewBox="0 0 62 63" fill="none" xmlns="http://www.w3.org/2000/svg">
<rect x="1.89551" y="1.45795" width="58.8364" height="60.0532" rx="14" fill="url(#paint0_linear_0_1)" stroke="white" stroke-width="2"/>
<g clip-path="url(#clip0_0_1)">
<path d="M40.75 40H21.25C20.8375 40 20.5 40.3375 20.5 40.75V42.25C20.5 42.6625 20.8375 43 21.25 43H40.75C41.1625 43 41.5 42.6625 41.5 42.25V40.75C41.5 40.3375 41.1625 40 40.75 40ZM43.75 25C42.5078 25 41.5 26.0078 41.5 27.25C41.5 27.5828 41.575 27.8922 41.7063 28.1781L38.3125 30.2125C37.5906 30.6437 36.6578 30.4 36.2406 29.6688L32.4203 22.9844C32.9219 22.5719 33.25 21.9531 33.25 21.25C33.25 20.0078 32.2422 19 31 19C29.7578 19 28.75 20.0078 28.75 21.25C28.75 21.9531 29.0781 22.5719 29.5797 22.9844L25.7594 29.6688C25.3422 30.4 24.4047 30.6437 23.6875 30.2125L20.2984 28.1781C20.425 27.8969 20.5047 27.5828 20.5047 27.25C20.5047 26.0078 19.4969 25 18.2547 25C17.0125 25 16 26.0078 16 27.25C16 28.4922 17.0078 29.5 18.25 29.5C18.3719 29.5 18.4938 29.4812 18.6109 29.4625L22 38.5H40L43.3891 29.4625C43.5062 29.4812 43.6281 29.5 43.75 29.5C44.9922 29.5 46 28.4922 46 27.25C46 26.0078 44.9922 25 43.75 25Z" fill="#FFC700"/>
</g>
<defs>
<linearGradient id="paint0_linear_0_1" x1="55.6483" y1="62.5111" x2="-5.18814" y2="-9.27589" gradientUnits="userSpaceOnUse">
<stop stop-color="#8945EC"/>
<stop offset="1" stop-color="#8945EC" stop-opacity="0.5"/>
</linearGradient>
<clipPath id="clip0_0_1">
<rect width="30" height="24" fill="white" transform="translate(16 19)"/>
</clipPath>
</defs>
</svg>
