<svg width="62" height="63" viewBox="0 0 62 63" fill="none" xmlns="http://www.w3.org/2000/svg">
<rect x="1.89551" y="1.45795" width="58.8364" height="60.0532" rx="14" fill="url(#paint0_linear_0_1)" stroke="white" stroke-width="2"/>
<path d="M39.7503 38.5004H22.254C22.2665 40.2466 22.3565 42.1404 22.984 42.7679C23.7165 43.5004 24.8953 43.5004 27.2515 43.5004H34.7515C37.109 43.5004 38.2878 43.5004 39.0203 42.7679C39.6478 42.1404 39.7365 40.2466 39.7503 38.5004Z" fill="#FFC700"/>
<path opacity="0.5" d="M24.7515 22.2504C23.3149 22.2494 21.9218 22.7434 20.8068 23.6492C19.6917 24.555 18.9227 25.8173 18.6292 27.2236C18.3358 28.6299 18.5357 30.0944 19.1955 31.3706C19.8552 32.6467 20.9344 33.6567 22.2515 34.2304V38.5004H39.7515V34.2304C41.1407 33.6242 42.2622 32.534 42.9076 31.1626C43.5529 29.7912 43.678 28.2321 43.2596 26.7753C42.8413 25.3186 41.9079 24.0634 40.6332 23.2435C39.3585 22.4235 37.8294 22.0946 36.3303 22.3179C35.9523 21.2045 35.235 20.2375 34.2793 19.5527C33.3236 18.8679 32.1773 18.4996 31.0015 18.4996C29.8258 18.4996 28.6795 18.8679 27.7238 19.5527C26.768 20.2375 26.0508 21.2045 25.6728 22.3179C25.3678 22.2729 25.0599 22.2503 24.7515 22.2504Z" fill="#FFBE41"/>
<defs>
<linearGradient id="paint0_linear_0_1" x1="55.6483" y1="62.5111" x2="-5.18814" y2="-9.27589" gradientUnits="userSpaceOnUse">
<stop stop-color="#8945EC"/>
<stop offset="1" stop-color="#8945EC" stop-opacity="0.5"/>
</linearGradient>
</defs>
</svg>
