<svg width="62" height="63" viewBox="0 0 62 63" fill="none" xmlns="http://www.w3.org/2000/svg">
<rect x="1.89551" y="1.45795" width="58.8364" height="60.0532" rx="14" fill="url(#paint0_linear_0_1)" stroke="white" stroke-width="2"/>
<path d="M38.3891 17.2767C38.6971 17.057 39.0771 16.9628 39.452 17.0133C39.8269 17.0638 40.1685 17.2553 40.4073 17.5486C40.646 17.842 40.7641 18.2153 40.7375 18.5927C40.7109 18.97 40.5415 19.323 40.2639 19.5799L40.1181 19.6975L36.992 21.9308C36.5432 22.2508 36.1941 22.6912 35.985 23.2012C35.776 23.7112 35.7155 24.27 35.8106 24.8129L35.8582 25.039L40.8322 20.065C41.1 19.7982 41.4593 19.6432 41.8371 19.6317C42.215 19.6201 42.5831 19.7529 42.8666 20.0029C43.1502 20.2529 43.3279 20.6015 43.3638 20.9778C43.3996 21.3541 43.2909 21.73 43.0596 22.029L42.9361 22.1689L37.9621 27.1429C39.0111 27.4107 40.1716 27.0834 40.9171 26.2055L41.0703 26.0091L43.3036 22.8831C43.524 22.5763 43.8527 22.3649 44.2231 22.2915C44.5936 22.2182 44.9781 22.2885 45.2987 22.4881C45.6192 22.6878 45.8519 23.0018 45.9495 23.3667C46.0471 23.7315 46.0022 24.1198 45.8241 24.4528L45.7244 24.612L43.4926 27.7396C42.6666 28.8954 41.4515 29.7147 40.0702 30.047C38.6889 30.3794 37.2342 30.2025 35.9728 29.5489L35.705 29.4001L32.2873 32.8163L38.4724 39.0029C38.7286 39.2591 38.8825 39.6 38.9053 39.9616C38.928 40.3232 38.818 40.6807 38.5959 40.967L38.4724 41.1068C38.2162 41.363 37.8754 41.5169 37.5138 41.5396C37.1522 41.5624 36.7947 41.4524 36.5084 41.2303L36.3686 41.1068L30.1834 34.9202L23.9982 41.1068C23.742 41.363 23.4011 41.5169 23.0395 41.5396C22.6779 41.5624 22.3204 41.4524 22.0342 41.2303L21.8943 41.1068C21.6381 40.8506 21.4842 40.5097 21.4615 40.1481C21.4388 39.7866 21.5487 39.4291 21.7708 39.1428L21.8943 39.0029L28.0795 32.8163L25.684 30.4208C25.0537 30.7612 24.3731 30.9988 23.6679 31.1245L23.2959 31.1796C22.4057 31.2919 21.5016 31.1959 20.6549 30.8989C19.8082 30.602 19.0421 30.1123 18.4171 29.4685C17.0348 28.0848 16.2448 26.3454 16.0484 24.6745C15.8549 23.0304 16.2269 21.2687 17.4321 20.065C18.6358 18.8598 20.396 18.4878 22.0401 18.6813C23.711 18.8792 25.4519 19.6692 26.8341 21.0515C27.4777 21.6763 27.9672 22.4422 28.2642 23.2886C28.5611 24.135 28.6573 25.0388 28.5452 25.9288C28.4559 26.6802 28.2372 27.3929 27.9411 28.0133L27.7864 28.3169L30.1819 30.7124L33.6011 27.2962C32.8845 26.0728 32.6322 24.6325 32.8901 23.2384C33.1479 21.8443 33.8989 20.5895 35.0056 19.7034L35.2616 19.51L38.3891 17.2767Z" fill="#FFC700"/>
<defs>
<linearGradient id="paint0_linear_0_1" x1="55.6483" y1="62.5111" x2="-5.18814" y2="-9.27589" gradientUnits="userSpaceOnUse">
<stop stop-color="#8945EC"/>
<stop offset="1" stop-color="#8945EC" stop-opacity="0.5"/>
</linearGradient>
</defs>
</svg>
